<?xml version="1.0" encoding="UTF-8"?>
<svg xmlns="http://www.w3.org/2000/svg" xmlns:xlink="http://www.w3.org/1999/xlink" width="163.02pt" height="87.9pt" viewBox="0 0 163.02 87.9" version="1.1">
<g id="surface1">
<path style=" stroke:none;fill-rule:nonzero;fill:rgb(8.999634%,53.69873%,63.09967%);fill-opacity:1;" d="M 2.277344 72.742188 L 0 68.191406 L 4.554688 68.191406 Z M 2.277344 72.742188 "/>
<path style=" stroke:none;fill-rule:nonzero;fill:rgb(63.499451%,11.799622%,37.298584%);fill-opacity:1;" d="M 6.828125 63.648438 L 9.101563 68.191406 L 4.554688 68.191406 Z M 6.828125 63.648438 "/>
<path style=" stroke:none;fill-rule:nonzero;fill:rgb(90.19928%,19.999695%,17.599487%);fill-opacity:1;" d="M 11.375 63.648438 L 13.648438 68.191406 L 9.101563 68.191406 Z M 11.375 63.648438 "/>
<path style=" stroke:none;fill-rule:nonzero;fill:rgb(90.19928%,36.499023%,14.099121%);fill-opacity:1;" d="M 15.921875 72.742188 L 13.648438 68.191406 L 18.195313 68.191406 Z M 15.921875 72.742188 "/>
<path style=" stroke:none;fill-rule:nonzero;fill:rgb(95.698547%,68.998718%,10.198975%);fill-opacity:1;" d="M 20.464844 72.742188 L 18.199219 68.191406 L 22.742188 68.191406 Z M 20.464844 72.742188 "/>
<path style=" stroke:none;fill-rule:nonzero;fill:rgb(1.599121%,56.898499%,27.49939%);fill-opacity:1;" d="M 25.011719 63.648438 L 27.28125 68.191406 L 22.742188 68.191406 Z M 25.011719 63.648438 "/>
<path style=" stroke:none;fill-rule:nonzero;fill:rgb(89.7995%,89.399719%,9.799194%);fill-opacity:1;" d="M 29.558594 72.742188 L 27.28125 68.191406 L 31.832031 68.191406 Z M 29.558594 72.742188 "/>
<path style=" stroke:none;fill-rule:nonzero;fill:rgb(88.999939%,52.198792%,14.099121%);fill-opacity:1;" d="M 34.105469 63.648438 L 36.382813 68.191406 L 31.832031 68.191406 Z M 34.105469 63.648438 "/>
<path style=" stroke:none;fill-rule:nonzero;fill:rgb(83.099365%,29.798889%,15.299988%);fill-opacity:1;" d="M 38.652344 63.648438 L 40.925781 68.191406 L 36.382813 68.191406 Z M 38.652344 63.648438 "/>
<path style=" stroke:none;fill-rule:nonzero;fill:rgb(79.598999%,12.199402%,20.399475%);fill-opacity:1;" d="M 43.203125 63.648438 L 45.472656 68.191406 L 40.925781 68.191406 Z M 43.203125 63.648438 "/>
<path style=" stroke:none;fill-rule:nonzero;fill:rgb(82.699585%,10.998535%,34.098816%);fill-opacity:1;" d="M 47.746094 63.648438 L 50.019531 68.191406 L 45.472656 68.191406 Z M 47.746094 63.648438 "/>
<path style=" stroke:none;fill-rule:nonzero;fill:rgb(63.499451%,11.799622%,37.298584%);fill-opacity:1;" d="M 52.292969 63.648438 L 54.570313 68.191406 L 50.019531 68.191406 Z M 52.292969 63.648438 "/>
<path style=" stroke:none;fill-rule:nonzero;fill:rgb(28.199768%,18.399048%,49.398804%);fill-opacity:1;" d="M 56.839844 63.648438 L 59.113281 68.191406 L 54.570313 68.191406 Z M 56.839844 63.648438 "/>
<path style=" stroke:none;fill-rule:nonzero;fill:rgb(8.599854%,69.799805%,81.599426%);fill-opacity:1;" d="M 61.386719 72.742188 L 59.113281 68.191406 L 63.660156 68.191406 Z M 61.386719 72.742188 "/>
<path style=" stroke:none;fill-rule:nonzero;fill:rgb(6.698608%,29.798889%,43.099976%);fill-opacity:1;" d="M 65.929688 63.648438 L 68.207031 68.191406 L 63.660156 68.191406 Z M 65.929688 63.648438 "/>
<path style=" stroke:none;fill-rule:nonzero;fill:rgb(63.499451%,11.799622%,37.298584%);fill-opacity:1;" d="M 70.480469 63.648438 L 72.75 68.191406 L 68.207031 68.191406 Z M 70.480469 63.648438 "/>
<path style=" stroke:none;fill-rule:nonzero;fill:rgb(79.998779%,11.399841%,35.299683%);fill-opacity:1;" d="M 75.027344 72.742188 L 72.75 68.191406 L 77.296875 68.191406 Z M 75.027344 72.742188 "/>
<path style=" stroke:none;fill-rule:nonzero;fill:rgb(90.19928%,19.999695%,17.599487%);fill-opacity:1;" d="M 75.027344 63.648438 L 77.296875 68.191406 L 72.75 68.191406 Z M 75.027344 63.648438 "/>
<path style=" stroke:none;fill-rule:nonzero;fill:rgb(95.298767%,81.999207%,7.099915%);fill-opacity:1;" d="M 79.570313 63.648438 L 81.84375 68.191406 L 77.292969 68.191406 Z M 79.570313 63.648438 "/>
<path style=" stroke:none;fill-rule:nonzero;fill:rgb(95.698547%,68.998718%,10.198975%);fill-opacity:1;" d="M 84.117188 72.742188 L 81.84375 68.191406 L 86.390625 68.191406 Z M 84.117188 72.742188 "/>
<path style=" stroke:none;fill-rule:nonzero;fill:rgb(63.499451%,11.799622%,37.298584%);fill-opacity:1;" d="M 77.292969 59.101563 L 75.023438 63.648438 L 79.570313 63.648438 Z M 77.292969 59.101563 "/>
<path style=" stroke:none;fill-rule:nonzero;fill:rgb(79.998779%,11.399841%,35.299683%);fill-opacity:1;" d="M 72.75 68.191406 L 75.027344 63.648438 L 70.480469 63.648438 Z M 72.75 68.191406 "/>
<path style=" stroke:none;fill-rule:nonzero;fill:rgb(90.19928%,19.999695%,17.599487%);fill-opacity:1;" d="M 72.75 59.101563 L 70.480469 63.648438 L 75.027344 63.648438 Z M 72.75 59.101563 "/>
<path style=" stroke:none;fill-rule:nonzero;fill:rgb(90.19928%,19.999695%,17.599487%);fill-opacity:1;" d="M 68.207031 68.191406 L 70.480469 63.648438 L 65.929688 63.648438 Z M 68.207031 68.191406 "/>
<path style=" stroke:none;fill-rule:nonzero;fill:rgb(90.19928%,36.499023%,14.099121%);fill-opacity:1;" d="M 68.207031 59.101563 L 65.929688 63.648438 L 70.480469 63.648438 Z M 68.207031 59.101563 "/>
<path style=" stroke:none;fill-rule:nonzero;fill:rgb(95.698547%,68.998718%,10.198975%);fill-opacity:1;" d="M 63.660156 68.191406 L 65.929688 63.648438 L 61.386719 63.648438 Z M 63.660156 68.191406 "/>
<path style=" stroke:none;fill-rule:nonzero;fill:rgb(95.698547%,68.998718%,10.198975%);fill-opacity:1;" d="M 63.660156 59.101563 L 61.386719 63.648438 L 65.929688 63.648438 Z M 63.660156 59.101563 "/>
<path style=" stroke:none;fill-rule:nonzero;fill:rgb(6.698608%,29.798889%,43.099976%);fill-opacity:1;" d="M 59.113281 68.191406 L 61.386719 63.648438 L 56.84375 63.648438 Z M 59.113281 68.191406 "/>
<path style=" stroke:none;fill-rule:nonzero;fill:rgb(41.19873%,74.099731%,27.099609%);fill-opacity:1;" d="M 59.113281 59.101563 L 56.84375 63.648438 L 61.386719 63.648438 Z M 59.113281 59.101563 "/>
<path style=" stroke:none;fill-rule:nonzero;fill:rgb(89.7995%,89.399719%,9.799194%);fill-opacity:1;" d="M 54.570313 68.191406 L 56.839844 63.648438 L 52.292969 63.648438 Z M 54.570313 68.191406 "/>
<path style=" stroke:none;fill-rule:nonzero;fill:rgb(95.698547%,69.398499%,9.799194%);fill-opacity:1;" d="M 54.570313 59.101563 L 52.292969 63.648438 L 56.839844 63.648438 Z M 54.570313 59.101563 "/>
<path style=" stroke:none;fill-rule:nonzero;fill:rgb(90.19928%,36.499023%,14.099121%);fill-opacity:1;" d="M 50.019531 68.191406 L 52.292969 63.648438 L 47.746094 63.648438 Z M 50.019531 68.191406 "/>
<path style=" stroke:none;fill-rule:nonzero;fill:rgb(95.698547%,68.998718%,10.198975%);fill-opacity:1;" d="M 50.019531 59.101563 L 47.746094 63.648438 L 52.292969 63.648438 Z M 50.019531 59.101563 "/>
<path style=" stroke:none;fill-rule:nonzero;fill:rgb(90.19928%,19.999695%,17.599487%);fill-opacity:1;" d="M 45.472656 68.191406 L 47.746094 63.648438 L 43.203125 63.648438 Z M 45.472656 68.191406 "/>
<path style=" stroke:none;fill-rule:nonzero;fill:rgb(63.499451%,11.799622%,37.298584%);fill-opacity:1;" d="M 45.472656 59.101563 L 43.203125 63.648438 L 47.746094 63.648438 Z M 45.472656 59.101563 "/>
<path style=" stroke:none;fill-rule:nonzero;fill:rgb(91.398621%,32.199097%,28.199768%);fill-opacity:1;" d="M 40.925781 68.191406 L 43.203125 63.648438 L 38.652344 63.648438 Z M 40.925781 68.191406 "/>
<path style=" stroke:none;fill-rule:nonzero;fill:rgb(90.19928%,36.499023%,14.099121%);fill-opacity:1;" d="M 40.925781 59.101563 L 38.652344 63.648438 L 43.203125 63.648438 Z M 40.925781 59.101563 "/>
<path style=" stroke:none;fill-rule:nonzero;fill:rgb(63.499451%,11.799622%,37.298584%);fill-opacity:1;" d="M 36.382813 68.191406 L 38.652344 63.648438 L 34.105469 63.648438 Z M 36.382813 68.191406 "/>
<path style=" stroke:none;fill-rule:nonzero;fill:rgb(88.999939%,52.198792%,14.099121%);fill-opacity:1;" d="M 36.382813 59.101563 L 34.105469 63.648438 L 38.652344 63.648438 Z M 36.382813 59.101563 "/>
<path style=" stroke:none;fill-rule:nonzero;fill:rgb(42.399597%,17.298889%,52.49939%);fill-opacity:1;" d="M 31.832031 68.191406 L 34.105469 63.648438 L 29.558594 63.648438 Z M 31.832031 68.191406 "/>
<path style=" stroke:none;fill-rule:nonzero;fill:rgb(63.499451%,11.799622%,37.298584%);fill-opacity:1;" d="M 31.832031 59.101563 L 29.558594 63.648438 L 34.105469 63.648438 Z M 31.832031 59.101563 "/>
<path style=" stroke:none;fill-rule:nonzero;fill:rgb(6.698608%,29.798889%,43.099976%);fill-opacity:1;" d="M 27.28125 68.191406 L 29.558594 63.648438 L 25.011719 63.648438 Z M 27.28125 68.191406 "/>
<path style=" stroke:none;fill-rule:nonzero;fill:rgb(63.499451%,11.799622%,37.298584%);fill-opacity:1;" d="M 27.28125 59.101563 L 25.011719 63.648438 L 29.558594 63.648438 Z M 27.28125 59.101563 "/>
<path style=" stroke:none;fill-rule:nonzero;fill:rgb(8.599854%,69.799805%,81.599426%);fill-opacity:1;" d="M 22.742188 68.191406 L 25.011719 63.648438 L 20.464844 63.648438 Z M 22.742188 68.191406 "/>
<path style=" stroke:none;fill-rule:nonzero;fill:rgb(6.298828%,54.899597%,61.199951%);fill-opacity:1;" d="M 22.742188 59.101563 L 20.464844 63.648438 L 25.011719 63.648438 Z M 22.742188 59.101563 "/>
<path style=" stroke:none;fill-rule:nonzero;fill:rgb(6.298828%,54.899597%,61.199951%);fill-opacity:1;" d="M 18.199219 68.191406 L 20.464844 63.648438 L 15.921875 63.648438 Z M 18.199219 68.191406 "/>
<path style=" stroke:none;fill-rule:nonzero;fill:rgb(8.599854%,69.799805%,81.599426%);fill-opacity:1;" d="M 18.199219 59.101563 L 15.921875 63.648438 L 20.464844 63.648438 Z M 18.199219 59.101563 "/>
<path style=" stroke:none;fill-rule:nonzero;fill:rgb(28.199768%,18.399048%,49.398804%);fill-opacity:1;" d="M 13.648438 68.191406 L 15.921875 63.648438 L 11.375 63.648438 Z M 13.648438 68.191406 "/>
<path style=" stroke:none;fill-rule:nonzero;fill:rgb(63.499451%,11.799622%,37.298584%);fill-opacity:1;" d="M 13.648438 59.101563 L 11.375 63.648438 L 15.921875 63.648438 Z M 13.648438 59.101563 "/>
<path style=" stroke:none;fill-rule:nonzero;fill:rgb(90.19928%,19.999695%,17.599487%);fill-opacity:1;" d="M 9.101563 59.101563 L 6.828125 63.648438 L 11.375 63.648438 Z M 9.101563 59.101563 "/>
<path style=" stroke:none;fill-rule:nonzero;fill:rgb(90.19928%,36.499023%,14.099121%);fill-opacity:1;" d="M 65.929688 54.554688 L 68.207031 59.101563 L 63.660156 59.101563 Z M 65.929688 54.554688 "/>
<path style=" stroke:none;fill-rule:nonzero;fill:rgb(95.298767%,81.999207%,7.099915%);fill-opacity:1;" d="M 65.929688 63.648438 L 63.660156 59.101563 L 68.207031 59.101563 Z M 65.929688 63.648438 "/>
<path style=" stroke:none;fill-rule:nonzero;fill:rgb(95.698547%,68.998718%,10.198975%);fill-opacity:1;" d="M 61.386719 54.554688 L 63.660156 59.101563 L 59.113281 59.101563 Z M 61.386719 54.554688 "/>
<path style=" stroke:none;fill-rule:nonzero;fill:rgb(89.7995%,89.399719%,9.799194%);fill-opacity:1;" d="M 61.386719 63.648438 L 59.113281 59.101563 L 63.660156 59.101563 Z M 61.386719 63.648438 "/>
<path style=" stroke:none;fill-rule:nonzero;fill:rgb(41.19873%,74.099731%,27.099609%);fill-opacity:1;" d="M 56.839844 54.554688 L 59.113281 59.101563 L 54.570313 59.101563 Z M 56.839844 54.554688 "/>
<path style=" stroke:none;fill-rule:nonzero;fill:rgb(1.599121%,56.898499%,27.49939%);fill-opacity:1;" d="M 56.839844 63.648438 L 54.570313 59.101563 L 59.113281 59.101563 Z M 56.839844 63.648438 "/>
<path style=" stroke:none;fill-rule:nonzero;fill:rgb(89.7995%,89.399719%,9.799194%);fill-opacity:1;" d="M 52.292969 54.554688 L 54.570313 59.101563 L 50.019531 59.101563 Z M 52.292969 54.554688 "/>
<path style=" stroke:none;fill-rule:nonzero;fill:rgb(8.599854%,69.799805%,81.599426%);fill-opacity:1;" d="M 52.292969 63.648438 L 50.019531 59.101563 L 54.570313 59.101563 Z M 52.292969 63.648438 "/>
<path style=" stroke:none;fill-rule:nonzero;fill:rgb(90.19928%,36.499023%,14.099121%);fill-opacity:1;" d="M 47.746094 54.554688 L 50.019531 59.101563 L 45.472656 59.101563 Z M 47.746094 54.554688 "/>
<path style=" stroke:none;fill-rule:nonzero;fill:rgb(88.999939%,52.198792%,14.099121%);fill-opacity:1;" d="M 47.746094 63.648438 L 45.472656 59.101563 L 50.019531 59.101563 Z M 47.746094 63.648438 "/>
<path style=" stroke:none;fill-rule:nonzero;fill:rgb(42.399597%,17.298889%,52.49939%);fill-opacity:1;" d="M 43.203125 54.554688 L 45.472656 59.101563 L 40.925781 59.101563 Z M 43.203125 54.554688 "/>
<path style=" stroke:none;fill-rule:nonzero;fill:rgb(83.099365%,29.798889%,15.299988%);fill-opacity:1;" d="M 43.203125 63.648438 L 40.925781 59.101563 L 45.472656 59.101563 Z M 43.203125 63.648438 "/>
<path style=" stroke:none;fill-rule:nonzero;fill:rgb(91.398621%,32.199097%,28.199768%);fill-opacity:1;" d="M 38.652344 54.554688 L 40.925781 59.101563 L 36.382813 59.101563 Z M 38.652344 54.554688 "/>
<path style=" stroke:none;fill-rule:nonzero;fill:rgb(79.598999%,12.199402%,20.399475%);fill-opacity:1;" d="M 38.652344 63.648438 L 36.382813 59.101563 L 40.925781 59.101563 Z M 38.652344 63.648438 "/>
<path style=" stroke:none;fill-rule:nonzero;fill:rgb(63.499451%,11.799622%,37.298584%);fill-opacity:1;" d="M 34.105469 54.554688 L 36.382813 59.101563 L 31.832031 59.101563 Z M 34.105469 54.554688 "/>
<path style=" stroke:none;fill-rule:nonzero;fill:rgb(82.699585%,10.998535%,34.098816%);fill-opacity:1;" d="M 34.105469 63.648438 L 31.832031 59.101563 L 36.382813 59.101563 Z M 34.105469 63.648438 "/>
<path style=" stroke:none;fill-rule:nonzero;fill:rgb(42.399597%,17.298889%,52.49939%);fill-opacity:1;" d="M 29.558594 54.554688 L 31.832031 59.101563 L 27.28125 59.101563 Z M 29.558594 54.554688 "/>
<path style=" stroke:none;fill-rule:nonzero;fill:rgb(83.099365%,29.798889%,15.299988%);fill-opacity:1;" d="M 29.558594 63.648438 L 27.28125 59.101563 L 31.832031 59.101563 Z M 29.558594 63.648438 "/>
<path style=" stroke:none;fill-rule:nonzero;fill:rgb(6.698608%,29.798889%,43.099976%);fill-opacity:1;" d="M 25.011719 54.554688 L 27.28125 59.101563 L 22.742188 59.101563 Z M 25.011719 54.554688 "/>
<path style=" stroke:none;fill-rule:nonzero;fill:rgb(28.199768%,18.399048%,49.398804%);fill-opacity:1;" d="M 25.011719 63.648438 L 22.742188 59.101563 L 27.28125 59.101563 Z M 25.011719 63.648438 "/>
<path style=" stroke:none;fill-rule:nonzero;fill:rgb(8.599854%,69.799805%,81.599426%);fill-opacity:1;" d="M 20.464844 54.554688 L 22.742188 59.101563 L 18.199219 59.101563 Z M 20.464844 54.554688 "/>
<path style=" stroke:none;fill-rule:nonzero;fill:rgb(9.399414%,38.798523%,51.399231%);fill-opacity:1;" d="M 20.464844 63.648438 L 18.199219 59.101563 L 22.742188 59.101563 Z M 20.464844 63.648438 "/>
<path style=" stroke:none;fill-rule:nonzero;fill:rgb(6.698608%,29.798889%,43.099976%);fill-opacity:1;" d="M 15.921875 63.648438 L 13.648438 59.101563 L 18.195313 59.101563 Z M 15.921875 63.648438 "/>
<path style=" stroke:none;fill-rule:nonzero;fill:rgb(90.19928%,36.499023%,14.099121%);fill-opacity:1;" d="M 18.199219 59.101563 L 15.921875 54.550781 L 20.464844 54.550781 Z M 18.199219 59.101563 "/>
<path style=" stroke:none;fill-rule:nonzero;fill:rgb(95.698547%,68.998718%,10.198975%);fill-opacity:1;" d="M 22.742188 59.101563 L 20.464844 54.550781 L 25.011719 54.550781 Z M 22.742188 59.101563 "/>
<path style=" stroke:none;fill-rule:nonzero;fill:rgb(89.7995%,89.399719%,9.799194%);fill-opacity:1;" d="M 22.742188 50.007813 L 25.011719 54.550781 L 20.464844 54.550781 Z M 22.742188 50.007813 "/>
<path style=" stroke:none;fill-rule:nonzero;fill:rgb(41.19873%,74.099731%,27.099609%);fill-opacity:1;" d="M 27.28125 59.101563 L 25.011719 54.550781 L 29.558594 54.550781 Z M 27.28125 59.101563 "/>
<path style=" stroke:none;fill-rule:nonzero;fill:rgb(1.599121%,56.898499%,27.49939%);fill-opacity:1;" d="M 27.28125 50.007813 L 29.558594 54.550781 L 25.011719 54.550781 Z M 27.28125 50.007813 "/>
<path style=" stroke:none;fill-rule:nonzero;fill:rgb(89.7995%,89.399719%,9.799194%);fill-opacity:1;" d="M 31.832031 59.101563 L 29.558594 54.550781 L 34.105469 54.550781 Z M 31.832031 59.101563 "/>
<path style=" stroke:none;fill-rule:nonzero;fill:rgb(88.999939%,52.198792%,14.099121%);fill-opacity:1;" d="M 31.832031 50.007813 L 34.105469 54.550781 L 29.558594 54.550781 Z M 31.832031 50.007813 "/>
<path style=" stroke:none;fill-rule:nonzero;fill:rgb(90.19928%,36.499023%,14.099121%);fill-opacity:1;" d="M 36.382813 59.101563 L 34.105469 54.550781 L 38.652344 54.550781 Z M 36.382813 59.101563 "/>
<path style=" stroke:none;fill-rule:nonzero;fill:rgb(95.698547%,69.398499%,9.799194%);fill-opacity:1;" d="M 36.382813 50.007813 L 38.652344 54.550781 L 34.105469 54.550781 Z M 36.382813 50.007813 "/>
<path style=" stroke:none;fill-rule:nonzero;fill:rgb(90.19928%,19.999695%,17.599487%);fill-opacity:1;" d="M 40.925781 59.101563 L 38.652344 54.550781 L 43.203125 54.550781 Z M 40.925781 59.101563 "/>
<path style=" stroke:none;fill-rule:nonzero;fill:rgb(63.499451%,11.799622%,37.298584%);fill-opacity:1;" d="M 40.925781 50.007813 L 43.203125 54.550781 L 38.652344 54.550781 Z M 40.925781 50.007813 "/>
<path style=" stroke:none;fill-rule:nonzero;fill:rgb(95.698547%,68.998718%,10.198975%);fill-opacity:1;" d="M 45.472656 59.101563 L 43.203125 54.550781 L 47.746094 54.550781 Z M 45.472656 59.101563 "/>
<path style=" stroke:none;fill-rule:nonzero;fill:rgb(90.19928%,36.499023%,14.099121%);fill-opacity:1;" d="M 45.472656 50.007813 L 47.746094 54.550781 L 43.203125 54.550781 Z M 45.472656 50.007813 "/>
<path style=" stroke:none;fill-rule:nonzero;fill:rgb(63.499451%,11.799622%,37.298584%);fill-opacity:1;" d="M 50.019531 59.101563 L 47.746094 54.550781 L 52.292969 54.550781 Z M 50.019531 59.101563 "/>
<path style=" stroke:none;fill-rule:nonzero;fill:rgb(88.999939%,52.198792%,14.099121%);fill-opacity:1;" d="M 50.019531 50.007813 L 52.292969 54.550781 L 47.746094 54.550781 Z M 50.019531 50.007813 "/>
<path style=" stroke:none;fill-rule:nonzero;fill:rgb(42.399597%,17.298889%,52.49939%);fill-opacity:1;" d="M 54.570313 59.101563 L 52.292969 54.550781 L 56.839844 54.550781 Z M 54.570313 59.101563 "/>
<path style=" stroke:none;fill-rule:nonzero;fill:rgb(90.19928%,36.499023%,14.099121%);fill-opacity:1;" d="M 54.570313 50.007813 L 56.839844 54.550781 L 52.292969 54.550781 Z M 54.570313 50.007813 "/>
<path style=" stroke:none;fill-rule:nonzero;fill:rgb(6.698608%,29.798889%,43.099976%);fill-opacity:1;" d="M 59.113281 59.101563 L 56.84375 54.550781 L 61.386719 54.550781 Z M 59.113281 59.101563 "/>
<path style=" stroke:none;fill-rule:nonzero;fill:rgb(6.298828%,54.899597%,61.199951%);fill-opacity:1;" d="M 59.113281 50.007813 L 61.386719 54.550781 L 56.84375 54.550781 Z M 59.113281 50.007813 "/>
<path style=" stroke:none;fill-rule:nonzero;fill:rgb(8.599854%,69.799805%,81.599426%);fill-opacity:1;" d="M 63.660156 59.101563 L 61.386719 54.550781 L 65.929688 54.550781 Z M 63.660156 59.101563 "/>
<path style=" stroke:none;fill-rule:nonzero;fill:rgb(9.399414%,38.798523%,51.399231%);fill-opacity:1;" d="M 63.660156 50.007813 L 65.929688 54.550781 L 61.386719 54.550781 Z M 63.660156 50.007813 "/>
<path style=" stroke:none;fill-rule:nonzero;fill:rgb(6.298828%,54.899597%,61.199951%);fill-opacity:1;" d="M 68.207031 59.101563 L 65.929688 54.550781 L 70.480469 54.550781 Z M 68.207031 59.101563 "/>
<path style=" stroke:none;fill-rule:nonzero;fill:rgb(89.7995%,89.399719%,9.799194%);fill-opacity:1;" d="M 29.558594 45.460938 L 27.28125 50.007813 L 31.832031 50.007813 Z M 29.558594 45.460938 "/>
<path style=" stroke:none;fill-rule:nonzero;fill:rgb(95.698547%,69.398499%,9.799194%);fill-opacity:1;" d="M 29.558594 54.550781 L 31.832031 50.007813 L 27.28125 50.007813 Z M 29.558594 54.550781 "/>
<path style=" stroke:none;fill-rule:nonzero;fill:rgb(90.19928%,36.499023%,14.099121%);fill-opacity:1;" d="M 34.105469 45.460938 L 31.832031 50.007813 L 36.382813 50.007813 Z M 34.105469 45.460938 "/>
<path style=" stroke:none;fill-rule:nonzero;fill:rgb(90.19928%,19.999695%,17.599487%);fill-opacity:1;" d="M 34.105469 54.550781 L 36.382813 50.007813 L 31.832031 50.007813 Z M 34.105469 54.550781 "/>
<path style=" stroke:none;fill-rule:nonzero;fill:rgb(90.19928%,19.999695%,17.599487%);fill-opacity:1;" d="M 38.652344 45.460938 L 36.382813 50.007813 L 40.925781 50.007813 Z M 38.652344 45.460938 "/>
<path style=" stroke:none;fill-rule:nonzero;fill:rgb(83.099365%,29.798889%,15.299988%);fill-opacity:1;" d="M 38.652344 54.550781 L 40.925781 50.007813 L 36.382813 50.007813 Z M 38.652344 54.550781 "/>
<path style=" stroke:none;fill-rule:nonzero;fill:rgb(91.398621%,32.199097%,28.199768%);fill-opacity:1;" d="M 43.203125 45.460938 L 40.925781 50.007813 L 45.472656 50.007813 Z M 43.203125 45.460938 "/>
<path style=" stroke:none;fill-rule:nonzero;fill:rgb(79.598999%,12.199402%,20.399475%);fill-opacity:1;" d="M 43.203125 54.550781 L 45.472656 50.007813 L 40.925781 50.007813 Z M 43.203125 54.550781 "/>
<path style=" stroke:none;fill-rule:nonzero;fill:rgb(63.499451%,11.799622%,37.298584%);fill-opacity:1;" d="M 47.746094 45.460938 L 45.472656 50.007813 L 50.019531 50.007813 Z M 47.746094 45.460938 "/>
<path style=" stroke:none;fill-rule:nonzero;fill:rgb(82.699585%,10.998535%,34.098816%);fill-opacity:1;" d="M 47.746094 54.550781 L 50.019531 50.007813 L 45.472656 50.007813 Z M 47.746094 54.550781 "/>
<path style=" stroke:none;fill-rule:nonzero;fill:rgb(42.399597%,17.298889%,52.49939%);fill-opacity:1;" d="M 52.292969 45.460938 L 50.019531 50.007813 L 54.570313 50.007813 Z M 52.292969 45.460938 "/>
<path style=" stroke:none;fill-rule:nonzero;fill:rgb(63.499451%,11.799622%,37.298584%);fill-opacity:1;" d="M 52.292969 54.550781 L 54.570313 50.007813 L 50.019531 50.007813 Z M 52.292969 54.550781 "/>
<path style=" stroke:none;fill-rule:nonzero;fill:rgb(6.698608%,29.798889%,43.099976%);fill-opacity:1;" d="M 56.839844 45.460938 L 54.570313 50.007813 L 59.113281 50.007813 Z M 56.839844 45.460938 "/>
<path style=" stroke:none;fill-rule:nonzero;fill:rgb(28.199768%,18.399048%,49.398804%);fill-opacity:1;" d="M 56.839844 54.550781 L 59.113281 50.007813 L 54.570313 50.007813 Z M 56.839844 54.550781 "/>
<path style=" stroke:none;fill-rule:nonzero;fill:rgb(90.19928%,19.999695%,17.599487%);fill-opacity:1;" d="M 38.652344 36.363281 L 36.382813 31.820313 L 40.925781 31.820313 Z M 38.652344 36.363281 "/>
<path style=" stroke:none;fill-rule:nonzero;fill:rgb(83.099365%,29.798889%,15.299988%);fill-opacity:1;" d="M 38.652344 27.273438 L 40.925781 31.820313 L 36.382813 31.820313 Z M 38.652344 27.273438 "/>
<path style=" stroke:none;fill-rule:nonzero;fill:rgb(91.398621%,32.199097%,28.199768%);fill-opacity:1;" d="M 43.203125 36.363281 L 40.925781 31.820313 L 45.472656 31.820313 Z M 43.203125 36.363281 "/>
<path style=" stroke:none;fill-rule:nonzero;fill:rgb(79.598999%,12.199402%,20.399475%);fill-opacity:1;" d="M 43.203125 27.273438 L 45.472656 31.820313 L 40.925781 31.820313 Z M 43.203125 27.273438 "/>
<path style=" stroke:none;fill-rule:nonzero;fill:rgb(63.499451%,11.799622%,37.298584%);fill-opacity:1;" d="M 47.746094 36.363281 L 45.472656 31.820313 L 50.019531 31.820313 Z M 47.746094 36.363281 "/>
<path style=" stroke:none;fill-rule:nonzero;fill:rgb(83.499146%,23.498535%,41.598511%);fill-opacity:1;" d="M 47.746094 27.273438 L 50.019531 31.820313 L 45.472656 31.820313 Z M 47.746094 27.273438 "/>
<path style=" stroke:none;fill-rule:nonzero;fill:rgb(42.399597%,17.298889%,52.49939%);fill-opacity:1;" d="M 52.292969 36.363281 L 50.019531 31.820313 L 54.570313 31.820313 Z M 52.292969 36.363281 "/>
<path style=" stroke:none;fill-rule:nonzero;fill:rgb(63.499451%,11.799622%,37.298584%);fill-opacity:1;" d="M 36.382813 31.820313 L 38.652344 27.273438 L 34.105469 27.273438 Z M 36.382813 31.820313 "/>
<path style=" stroke:none;fill-rule:nonzero;fill:rgb(82.699585%,10.998535%,34.098816%);fill-opacity:1;" d="M 40.925781 22.730469 L 38.652344 27.273438 L 43.203125 27.273438 Z M 40.925781 22.730469 "/>
<path style=" stroke:none;fill-rule:nonzero;fill:rgb(88.999939%,52.198792%,14.099121%);fill-opacity:1;" d="M 40.925781 31.820313 L 43.203125 27.273438 L 38.652344 27.273438 Z M 40.925781 31.820313 "/>
<path style=" stroke:none;fill-rule:nonzero;fill:rgb(91.398621%,32.199097%,28.199768%);fill-opacity:1;" d="M 45.472656 22.730469 L 43.203125 27.273438 L 47.746094 27.273438 Z M 45.472656 22.730469 "/>
<path style=" stroke:none;fill-rule:nonzero;fill:rgb(42.399597%,17.298889%,52.49939%);fill-opacity:1;" d="M 45.472656 31.820313 L 47.746094 27.273438 L 43.203125 27.273438 Z M 45.472656 31.820313 "/>
<path style=" stroke:none;fill-rule:nonzero;fill:rgb(82.699585%,10.998535%,34.098816%);fill-opacity:1;" d="M 50.019531 31.820313 L 52.289063 27.273438 L 47.746094 27.273438 Z M 50.019531 31.820313 "/>
<path style=" stroke:none;fill-rule:nonzero;fill:rgb(41.19873%,74.099731%,27.099609%);fill-opacity:1;" d="M 59.113281 50.007813 L 61.386719 45.460938 L 56.84375 45.460938 Z M 59.113281 50.007813 "/>
<path style=" stroke:none;fill-rule:nonzero;fill:rgb(89.7995%,89.399719%,9.799194%);fill-opacity:1;" d="M 54.570313 50.007813 L 56.839844 45.460938 L 52.292969 45.460938 Z M 54.570313 50.007813 "/>
<path style=" stroke:none;fill-rule:nonzero;fill:rgb(95.698547%,69.398499%,9.799194%);fill-opacity:1;" d="M 54.570313 40.914063 L 52.292969 45.460938 L 56.839844 45.460938 Z M 54.570313 40.914063 "/>
<path style=" stroke:none;fill-rule:nonzero;fill:rgb(90.19928%,36.499023%,14.099121%);fill-opacity:1;" d="M 50.019531 50.007813 L 52.292969 45.460938 L 47.746094 45.460938 Z M 50.019531 50.007813 "/>
<path style=" stroke:none;fill-rule:nonzero;fill:rgb(88.999939%,52.198792%,14.099121%);fill-opacity:1;" d="M 50.019531 40.914063 L 47.746094 45.460938 L 52.292969 45.460938 Z M 50.019531 40.914063 "/>
<path style=" stroke:none;fill-rule:nonzero;fill:rgb(90.19928%,19.999695%,17.599487%);fill-opacity:1;" d="M 45.472656 50.007813 L 47.746094 45.460938 L 43.203125 45.460938 Z M 45.472656 50.007813 "/>
<path style=" stroke:none;fill-rule:nonzero;fill:rgb(83.099365%,29.798889%,15.299988%);fill-opacity:1;" d="M 45.472656 40.914063 L 43.203125 45.460938 L 47.746094 45.460938 Z M 45.472656 40.914063 "/>
<path style=" stroke:none;fill-rule:nonzero;fill:rgb(88.999939%,52.198792%,14.099121%);fill-opacity:1;" d="M 40.925781 50.007813 L 43.203125 45.460938 L 38.652344 45.460938 Z M 40.925781 50.007813 "/>
<path style=" stroke:none;fill-rule:nonzero;fill:rgb(79.598999%,12.199402%,20.399475%);fill-opacity:1;" d="M 40.925781 40.914063 L 38.652344 45.460938 L 43.203125 45.460938 Z M 40.925781 40.914063 "/>
<path style=" stroke:none;fill-rule:nonzero;fill:rgb(63.499451%,11.799622%,37.298584%);fill-opacity:1;" d="M 36.382813 50.007813 L 38.652344 45.460938 L 34.105469 45.460938 Z M 36.382813 50.007813 "/>
<path style=" stroke:none;fill-rule:nonzero;fill:rgb(82.699585%,10.998535%,34.098816%);fill-opacity:1;" d="M 36.382813 40.914063 L 34.105469 45.460938 L 38.652344 45.460938 Z M 36.382813 40.914063 "/>
<path style=" stroke:none;fill-rule:nonzero;fill:rgb(42.399597%,17.298889%,52.49939%);fill-opacity:1;" d="M 31.832031 50.007813 L 34.105469 45.460938 L 29.558594 45.460938 Z M 31.832031 50.007813 "/>
<path style=" stroke:none;fill-rule:nonzero;fill:rgb(63.499451%,11.799622%,37.298584%);fill-opacity:1;" d="M 31.832031 40.914063 L 29.558594 45.460938 L 34.105469 45.460938 Z M 31.832031 40.914063 "/>
<path style=" stroke:none;fill-rule:nonzero;fill:rgb(6.698608%,29.798889%,43.099976%);fill-opacity:1;" d="M 27.28125 50.007813 L 29.558594 45.460938 L 25.011719 45.460938 Z M 27.28125 50.007813 "/>
<path style=" stroke:none;fill-rule:nonzero;fill:rgb(95.698547%,69.398499%,9.799194%);fill-opacity:1;" d="M 29.558594 45.460938 L 31.832031 40.914063 L 27.28125 40.914063 Z M 29.558594 45.460938 "/>
<path style=" stroke:none;fill-rule:nonzero;fill:rgb(88.999939%,52.198792%,14.099121%);fill-opacity:1;" d="M 34.105469 45.460938 L 36.382813 40.914063 L 31.832031 40.914063 Z M 34.105469 45.460938 "/>
<path style=" stroke:none;fill-rule:nonzero;fill:rgb(90.19928%,19.999695%,17.599487%);fill-opacity:1;" d="M 38.652344 36.363281 L 36.382813 40.914063 L 40.925781 40.914063 Z M 38.652344 36.363281 "/>
<path style=" stroke:none;fill-rule:nonzero;fill:rgb(83.099365%,29.798889%,15.299988%);fill-opacity:1;" d="M 38.652344 45.460938 L 40.925781 40.914063 L 36.382813 40.914063 Z M 38.652344 45.460938 "/>
<path style=" stroke:none;fill-rule:nonzero;fill:rgb(91.398621%,32.199097%,28.199768%);fill-opacity:1;" d="M 43.203125 36.363281 L 40.925781 40.914063 L 45.472656 40.914063 Z M 43.203125 36.363281 "/>
<path style=" stroke:none;fill-rule:nonzero;fill:rgb(90.19928%,19.999695%,17.599487%);fill-opacity:1;" d="M 43.203125 45.460938 L 45.472656 40.914063 L 40.925781 40.914063 Z M 43.203125 45.460938 "/>
<path style=" stroke:none;fill-rule:nonzero;fill:rgb(63.499451%,11.799622%,37.298584%);fill-opacity:1;" d="M 47.746094 36.363281 L 45.472656 40.914063 L 50.019531 40.914063 Z M 47.746094 36.363281 "/>
<path style=" stroke:none;fill-rule:nonzero;fill:rgb(82.699585%,10.998535%,34.098816%);fill-opacity:1;" d="M 47.746094 45.460938 L 50.019531 40.914063 L 45.472656 40.914063 Z M 47.746094 45.460938 "/>
<path style=" stroke:none;fill-rule:nonzero;fill:rgb(42.399597%,17.298889%,52.49939%);fill-opacity:1;" d="M 52.292969 36.363281 L 50.019531 40.914063 L 54.570313 40.914063 Z M 52.292969 36.363281 "/>
<path style=" stroke:none;fill-rule:nonzero;fill:rgb(63.499451%,11.799622%,37.298584%);fill-opacity:1;" d="M 52.292969 45.460938 L 54.570313 40.914063 L 50.019531 40.914063 Z M 52.292969 45.460938 "/>
<path style=" stroke:none;fill-rule:nonzero;fill:rgb(28.199768%,18.399048%,49.398804%);fill-opacity:1;" d="M 56.839844 45.460938 L 59.113281 40.914063 L 54.570313 40.914063 Z M 56.839844 45.460938 "/>
<path style=" stroke:none;fill-rule:nonzero;fill:rgb(95.698547%,69.398499%,9.799194%);fill-opacity:1;" d="M 31.832031 31.820313 L 34.105469 36.363281 L 29.558594 36.363281 Z M 31.832031 31.820313 "/>
<path style=" stroke:none;fill-rule:nonzero;fill:rgb(95.698547%,69.398499%,9.799194%);fill-opacity:1;" d="M 59.113281 31.820313 L 61.386719 36.363281 L 56.84375 36.363281 Z M 59.113281 31.820313 "/>
<path style=" stroke:none;fill-rule:nonzero;fill:rgb(90.19928%,36.499023%,14.099121%);fill-opacity:1;" d="M 36.382813 40.914063 L 34.105469 36.363281 L 38.652344 36.363281 Z M 36.382813 40.914063 "/>
<path style=" stroke:none;fill-rule:nonzero;fill:rgb(88.999939%,52.198792%,14.099121%);fill-opacity:1;" d="M 36.382813 31.820313 L 38.652344 36.363281 L 34.105469 36.363281 Z M 36.382813 31.820313 "/>
<path style=" stroke:none;fill-rule:nonzero;fill:rgb(88.999939%,52.198792%,14.099121%);fill-opacity:1;" d="M 40.925781 40.914063 L 38.652344 36.363281 L 43.203125 36.363281 Z M 40.925781 40.914063 "/>
<path style=" stroke:none;fill-rule:nonzero;fill:rgb(83.099365%,29.798889%,15.299988%);fill-opacity:1;" d="M 40.925781 31.820313 L 43.203125 36.363281 L 38.652344 36.363281 Z M 40.925781 31.820313 "/>
<path style=" stroke:none;fill-rule:nonzero;fill:rgb(82.699585%,10.998535%,34.098816%);fill-opacity:1;" d="M 45.472656 40.914063 L 43.203125 36.363281 L 47.746094 36.363281 Z M 45.472656 40.914063 "/>
<path style=" stroke:none;fill-rule:nonzero;fill:rgb(79.598999%,12.199402%,20.399475%);fill-opacity:1;" d="M 45.472656 31.820313 L 47.746094 36.363281 L 43.203125 36.363281 Z M 45.472656 31.820313 "/>
<path style=" stroke:none;fill-rule:nonzero;fill:rgb(83.499146%,23.498535%,41.598511%);fill-opacity:1;" d="M 50.019531 40.914063 L 47.746094 36.363281 L 52.292969 36.363281 Z M 50.019531 40.914063 "/>
<path style=" stroke:none;fill-rule:nonzero;fill:rgb(82.699585%,10.998535%,34.098816%);fill-opacity:1;" d="M 50.019531 31.820313 L 52.292969 36.363281 L 47.746094 36.363281 Z M 50.019531 31.820313 "/>
<path style=" stroke:none;fill-rule:nonzero;fill:rgb(90.19928%,19.999695%,17.599487%);fill-opacity:1;" d="M 38.652344 27.28125 L 36.382813 22.734375 L 40.925781 22.734375 Z M 38.652344 27.28125 "/>
<path style=" stroke:none;fill-rule:nonzero;fill:rgb(83.099365%,29.798889%,15.299988%);fill-opacity:1;" d="M 36.382813 22.734375 L 38.652344 27.28125 L 34.105469 27.28125 Z M 36.382813 22.734375 "/>
<path style=" stroke:none;fill-rule:nonzero;fill:rgb(92.498779%,46.699524%,30.599976%);fill-opacity:1;" d="M 43.203125 27.28125 L 40.925781 22.734375 L 45.472656 22.734375 Z M 43.203125 27.28125 "/>
<path style=" stroke:none;fill-rule:nonzero;fill:rgb(79.598999%,12.199402%,20.399475%);fill-opacity:1;" d="M 43.203125 18.191406 L 45.472656 22.734375 L 40.925781 22.734375 Z M 43.203125 18.191406 "/>
<path style=" stroke:none;fill-rule:nonzero;fill:rgb(63.499451%,11.799622%,37.298584%);fill-opacity:1;" d="M 47.746094 27.28125 L 45.472656 22.734375 L 50.019531 22.734375 Z M 47.746094 27.28125 "/>
<path style=" stroke:none;fill-rule:nonzero;fill:rgb(82.699585%,10.998535%,34.098816%);fill-opacity:1;" d="M 47.746094 18.191406 L 50.019531 22.734375 L 45.472656 22.734375 Z M 47.746094 18.191406 "/>
<path style=" stroke:none;fill-rule:nonzero;fill:rgb(90.19928%,19.999695%,17.599487%);fill-opacity:1;" d="M 45.472656 22.734375 L 47.746094 18.191406 L 43.203125 18.191406 Z M 45.472656 22.734375 "/>
<path style=" stroke:none;fill-rule:nonzero;fill:rgb(83.099365%,29.798889%,15.299988%);fill-opacity:1;" d="M 45.472656 13.644531 L 43.203125 18.191406 L 47.746094 18.191406 Z M 45.472656 13.644531 "/>
<path style=" stroke:none;fill-rule:nonzero;fill:rgb(91.398621%,32.199097%,28.199768%);fill-opacity:1;" d="M 40.925781 22.734375 L 43.203125 18.191406 L 38.652344 18.191406 Z M 40.925781 22.734375 "/>
<path style=" stroke:none;fill-rule:nonzero;fill:rgb(79.598999%,12.199402%,20.399475%);fill-opacity:1;" d="M 40.925781 13.644531 L 38.652344 18.191406 L 43.203125 18.191406 Z M 40.925781 13.644531 "/>
<path style=" stroke:none;fill-rule:nonzero;fill:rgb(82.699585%,10.198975%,39.599609%);fill-opacity:1;" d="M 43.203125 9.097656 L 45.472656 13.644531 L 40.925781 13.644531 Z M 43.203125 9.097656 "/>
<path style=" stroke:none;fill-rule:nonzero;fill:rgb(88.999939%,52.198792%,14.099121%);fill-opacity:1;" d="M 43.203125 18.191406 L 40.925781 13.644531 L 45.472656 13.644531 Z M 43.203125 18.191406 "/>
<path style=" stroke:none;fill-rule:nonzero;fill:rgb(90.19928%,19.999695%,17.599487%);fill-opacity:1;" d="M 40.925781 13.636719 L 38.652344 9.089844 L 43.203125 9.089844 Z M 40.925781 13.636719 "/>
<path style=" stroke:none;fill-rule:nonzero;fill:rgb(91.398621%,32.199097%,28.199768%);fill-opacity:1;" d="M 45.472656 13.636719 L 43.203125 9.089844 L 47.746094 9.089844 Z M 45.472656 13.636719 "/>
<path style=" stroke:none;fill-rule:nonzero;fill:rgb(91.398621%,32.199097%,28.199768%);fill-opacity:1;" d="M 43.203125 0 L 40.925781 4.546875 L 45.472656 4.546875 Z M 43.203125 0 "/>
<path style=" stroke:none;fill-rule:nonzero;fill:rgb(63.499451%,11.799622%,37.298584%);fill-opacity:1;" d="M 43.203125 9.089844 L 45.472656 4.546875 L 40.925781 4.546875 Z M 43.203125 9.089844 "/>
<path style=" stroke:none;fill-rule:nonzero;fill:rgb(13.299561%,12.199402%,12.199402%);fill-opacity:1;" d="M 77.640625 46.550781 C 77.351563 46.253906 76.925781 46.109375 76.363281 46.109375 L 73.851563 46.109375 L 73.851563 49.304688 L 76.363281 49.304688 C 76.925781 49.304688 77.351563 49.15625 77.640625 48.855469 C 77.941406 48.558594 78.089844 48.171875 78.089844 47.699219 C 78.089844 47.226563 77.941406 46.84375 77.640625 46.550781 M 77.453125 42.054688 C 77.136719 41.796875 76.726563 41.664063 76.214844 41.664063 L 73.851563 41.664063 L 73.851563 44.675781 L 76.214844 44.675781 C 76.726563 44.675781 77.136719 44.550781 77.453125 44.292969 C 77.765625 44.039063 77.925781 43.660156 77.925781 43.171875 C 77.925781 42.679688 77.765625 42.308594 77.453125 42.054688 M 79.441406 49.050781 C 79.289063 49.417969 79.070313 49.726563 78.789063 49.976563 C 78.503906 50.226563 78.171875 50.417969 77.78125 50.542969 C 77.398438 50.671875 76.972656 50.738281 76.507813 50.738281 L 72.265625 50.738281 L 72.265625 40.238281 L 76.34375 40.238281 C 77.332031 40.238281 78.101563 40.496094 78.667969 41.003906 C 79.234375 41.519531 79.515625 42.21875 79.515625 43.113281 C 79.515625 43.398438 79.480469 43.660156 79.390625 43.902344 C 79.308594 44.144531 79.199219 44.363281 79.070313 44.554688 C 78.9375 44.742188 78.785156 44.90625 78.621094 45.039063 C 78.449219 45.167969 78.28125 45.269531 78.101563 45.339844 C 78.308594 45.417969 78.503906 45.53125 78.691406 45.671875 C 78.878906 45.816406 79.042969 45.984375 79.191406 46.183594 C 79.339844 46.378906 79.457031 46.609375 79.546875 46.871094 C 79.636719 47.140625 79.679688 47.4375 79.679688 47.773438 C 79.679688 48.253906 79.601563 48.679688 79.441406 49.050781 "/>
<path style=" stroke:none;fill-rule:nonzero;fill:rgb(13.299561%,12.199402%,12.199402%);fill-opacity:1;" d="M 85.089844 42.628906 L 83.457031 47.289063 L 86.6875 47.289063 Z M 87.851563 50.734375 L 87.125 48.628906 L 82.980469 48.628906 L 82.257813 50.734375 L 80.566406 50.734375 L 84.414063 40.238281 L 85.695313 40.238281 L 89.546875 50.734375 "/>
<path style=" stroke:none;fill-rule:nonzero;fill:rgb(13.299561%,12.199402%,12.199402%);fill-opacity:1;" d="M 97.257813 50.734375 L 92.40625 43.351563 L 92.40625 50.734375 L 90.8125 50.734375 L 90.8125 40.238281 L 92.273438 40.238281 L 97.121094 47.613281 L 97.121094 40.238281 L 98.71875 40.238281 L 98.71875 50.734375 "/>
<path style=" stroke:none;fill-rule:nonzero;fill:rgb(13.299561%,12.199402%,12.199402%);fill-opacity:1;" d="M 108.25 48.382813 C 108.105469 48.847656 107.863281 49.261719 107.519531 49.636719 C 107.109375 50.054688 106.671875 50.359375 106.191406 50.542969 C 105.710938 50.734375 105.191406 50.828125 104.628906 50.828125 C 104.078125 50.828125 103.570313 50.730469 103.113281 50.535156 C 102.648438 50.34375 102.234375 50.070313 101.871094 49.703125 C 101.613281 49.453125 101.417969 49.179688 101.28125 48.894531 C 101.144531 48.613281 101.039063 48.296875 100.980469 47.96875 C 100.914063 47.632813 100.878906 47.261719 100.871094 46.851563 C 100.859375 46.445313 100.855469 45.988281 100.855469 45.492188 C 100.855469 44.988281 100.859375 44.535156 100.871094 44.121094 C 100.878906 43.714844 100.914063 43.34375 100.980469 43.011719 C 101.039063 42.675781 101.144531 42.367188 101.28125 42.082031 C 101.417969 41.796875 101.613281 41.527344 101.871094 41.269531 C 102.234375 40.90625 102.648438 40.628906 103.101563 40.4375 C 103.5625 40.246094 104.070313 40.148438 104.628906 40.148438 C 105.191406 40.148438 105.6875 40.238281 106.128906 40.40625 C 106.5625 40.578125 106.941406 40.816406 107.257813 41.109375 C 107.582031 41.40625 107.835938 41.746094 108.039063 42.140625 C 108.230469 42.535156 108.371094 42.957031 108.449219 43.40625 L 106.84375 43.40625 C 106.703125 42.828125 106.449219 42.382813 106.074219 42.058594 C 105.699219 41.738281 105.222656 41.578125 104.628906 41.578125 C 104.316406 41.578125 104.023438 41.640625 103.757813 41.757813 C 103.496094 41.875 103.269531 42.035156 103.078125 42.226563 C 102.953125 42.367188 102.851563 42.519531 102.765625 42.679688 C 102.683594 42.84375 102.617188 43.042969 102.566406 43.28125 C 102.527344 43.523438 102.496094 43.820313 102.476563 44.164063 C 102.457031 44.515625 102.445313 44.953125 102.445313 45.492188 C 102.445313 46.015625 102.457031 46.460938 102.476563 46.816406 C 102.496094 47.171875 102.527344 47.46875 102.566406 47.707031 C 102.617188 47.945313 102.683594 48.148438 102.765625 48.3125 C 102.851563 48.476563 102.953125 48.621094 103.078125 48.757813 C 103.269531 48.957031 103.496094 49.113281 103.757813 49.222656 C 104.023438 49.335938 104.316406 49.394531 104.628906 49.394531 C 104.972656 49.394531 105.289063 49.332031 105.589844 49.203125 C 105.882813 49.078125 106.132813 48.894531 106.34375 48.65625 C 106.535156 48.429688 106.671875 48.1875 106.75 47.921875 C 106.828125 47.660156 106.871094 47.347656 106.871094 47.007813 L 106.871094 46.417969 L 104.628906 46.417969 L 104.628906 45.074219 L 108.464844 45.074219 L 108.464844 46.679688 C 108.464844 47.355469 108.390625 47.921875 108.25 48.382813 "/>
<path style=" stroke:none;fill-rule:nonzero;fill:rgb(13.299561%,12.199402%,12.199402%);fill-opacity:1;" d="M 110.585938 50.734375 L 110.585938 40.238281 L 112.179688 40.238281 L 112.179688 49.304688 L 117.238281 49.304688 L 117.238281 50.734375 "/>
<path style=" stroke:none;fill-rule:nonzero;fill:rgb(13.299561%,12.199402%,12.199402%);fill-opacity:1;" d="M 122.101563 42.628906 L 120.464844 47.289063 L 123.695313 47.289063 Z M 124.863281 50.734375 L 124.140625 48.628906 L 119.992188 48.628906 L 119.269531 50.734375 L 117.574219 50.734375 L 121.425781 40.238281 L 122.707031 40.238281 L 126.558594 50.734375 "/>
<path style=" stroke:none;fill-rule:nonzero;fill:rgb(13.299561%,12.199402%,12.199402%);fill-opacity:1;" d="M 133.617188 43.582031 C 133.570313 43.082031 133.40625 42.679688 133.132813 42.375 C 132.699219 41.902344 132.101563 41.664063 131.347656 41.664063 L 129.414063 41.664063 L 129.414063 49.308594 L 131.347656 49.308594 C 132.101563 49.308594 132.699219 49.074219 133.132813 48.601563 C 133.40625 48.292969 133.570313 47.871094 133.617188 47.324219 C 133.667969 46.777344 133.691406 46.140625 133.691406 45.414063 C 133.691406 44.683594 133.667969 44.074219 133.617188 43.582031 M 135.277344 46.578125 C 135.269531 46.972656 135.238281 47.355469 135.179688 47.730469 C 135.121094 48.101563 135.019531 48.460938 134.875 48.804688 C 134.726563 49.148438 134.511719 49.464844 134.222656 49.75 C 133.886719 50.085938 133.488281 50.332031 133.03125 50.492188 C 132.566406 50.65625 132.0625 50.734375 131.511719 50.734375 L 127.824219 50.734375 L 127.824219 40.238281 L 131.511719 40.238281 C 132.0625 40.238281 132.566406 40.316406 133.03125 40.484375 C 133.488281 40.640625 133.886719 40.890625 134.222656 41.226563 C 134.511719 41.511719 134.726563 41.820313 134.875 42.148438 C 135.019531 42.476563 135.121094 42.820313 135.179688 43.179688 C 135.238281 43.539063 135.269531 43.902344 135.277344 44.277344 C 135.28125 44.652344 135.289063 45.03125 135.289063 45.414063 C 135.289063 45.796875 135.28125 46.183594 135.277344 46.578125 "/>
<path style=" stroke:none;fill-rule:nonzero;fill:rgb(13.299561%,12.199402%,12.199402%);fill-opacity:1;" d="M 137.425781 50.734375 L 137.425781 40.238281 L 144.128906 40.238281 L 144.128906 41.667969 L 139.011719 41.667969 L 139.011719 44.738281 L 143.382813 44.738281 L 143.382813 46.152344 L 139.011719 46.152344 L 139.011719 49.304688 L 144.128906 49.304688 L 144.128906 50.734375 "/>
<path style=" stroke:none;fill-rule:nonzero;fill:rgb(13.299561%,12.199402%,12.199402%);fill-opacity:1;" d="M 152.375 49.039063 C 152.1875 49.425781 151.925781 49.75 151.589844 50.015625 C 151.257813 50.28125 150.859375 50.480469 150.398438 50.617188 C 149.9375 50.757813 149.433594 50.828125 148.878906 50.828125 C 148.082031 50.828125 147.394531 50.722656 146.800781 50.515625 C 146.210938 50.308594 145.664063 49.949219 145.164063 49.441406 L 146.226563 48.390625 C 146.605469 48.777344 147.019531 49.039063 147.449219 49.179688 C 147.882813 49.320313 148.371094 49.394531 148.910156 49.394531 C 149.59375 49.394531 150.132813 49.257813 150.511719 48.972656 C 150.890625 48.691406 151.078125 48.296875 151.078125 47.785156 C 151.078125 47.304688 150.9375 46.945313 150.660156 46.699219 C 150.523438 46.570313 150.382813 46.476563 150.21875 46.417969 C 150.0625 46.355469 149.824219 46.300781 149.515625 46.253906 L 148.273438 46.078125 C 147.421875 45.957031 146.753906 45.675781 146.28125 45.238281 C 145.769531 44.757813 145.519531 44.085938 145.519531 43.230469 C 145.519531 42.777344 145.597656 42.367188 145.757813 41.984375 C 145.925781 41.605469 146.152344 41.28125 146.453125 41.003906 C 146.753906 40.726563 147.121094 40.515625 147.550781 40.371094 C 147.984375 40.226563 148.476563 40.144531 149.023438 40.144531 C 149.726563 40.144531 150.328125 40.242188 150.839844 40.425781 C 151.351563 40.617188 151.835938 40.921875 152.285156 41.347656 L 151.269531 42.351563 C 150.941406 42.035156 150.59375 41.820313 150.214844 41.703125 C 149.835938 41.589844 149.421875 41.535156 148.984375 41.535156 C 148.363281 41.535156 147.890625 41.695313 147.558594 42 C 147.230469 42.308594 147.0625 42.703125 147.0625 43.171875 C 147.0625 43.371094 147.097656 43.550781 147.164063 43.714844 C 147.222656 43.871094 147.328125 44.019531 147.464844 44.148438 C 147.742188 44.394531 148.132813 44.554688 148.644531 44.636719 L 149.839844 44.808594 C 150.328125 44.890625 150.726563 44.988281 151.019531 45.109375 C 151.3125 45.234375 151.574219 45.394531 151.800781 45.59375 C 152.085938 45.84375 152.300781 46.15625 152.4375 46.519531 C 152.582031 46.886719 152.65625 47.292969 152.65625 47.746094 C 152.65625 48.226563 152.5625 48.65625 152.375 49.039063 "/>
<path style=" stroke:none;fill-rule:nonzero;fill:rgb(13.299561%,12.199402%,12.199402%);fill-opacity:1;" d="M 71.523438 29.210938 C 71.476563 28.710938 71.316406 28.3125 71.035156 28.007813 C 70.605469 27.53125 70.011719 27.296875 69.253906 27.296875 L 67.328125 27.296875 L 67.328125 34.9375 L 69.253906 34.9375 C 70.011719 34.9375 70.605469 34.695313 71.035156 34.226563 C 71.316406 33.921875 71.476563 33.5 71.523438 32.953125 C 71.574219 32.40625 71.601563 31.769531 71.601563 31.042969 C 71.601563 30.3125 71.574219 29.699219 71.523438 29.210938 M 73.1875 32.207031 C 73.179688 32.601563 73.148438 32.984375 73.085938 33.355469 C 73.03125 33.734375 72.925781 34.089844 72.777344 34.433594 C 72.628906 34.78125 72.417969 35.09375 72.128906 35.375 C 71.796875 35.714844 71.398438 35.960938 70.933594 36.121094 C 70.46875 36.289063 69.96875 36.363281 69.417969 36.363281 L 65.726563 36.363281 L 65.726563 25.867188 L 69.417969 25.867188 C 69.96875 25.867188 70.46875 25.949219 70.933594 26.109375 C 71.398438 26.273438 71.796875 26.523438 72.128906 26.855469 C 72.417969 27.140625 72.628906 27.449219 72.777344 27.78125 C 72.925781 28.109375 73.03125 28.453125 73.085938 28.8125 C 73.148438 29.167969 73.179688 29.53125 73.1875 29.910156 C 73.191406 30.28125 73.191406 30.660156 73.191406 31.042969 C 73.191406 31.429688 73.191406 31.816406 73.1875 32.207031 "/>
<path style=" stroke:none;fill-rule:nonzero;fill:rgb(13.299561%,12.199402%,12.199402%);fill-opacity:1;" d="M 75.328125 36.363281 L 76.921875 36.363281 L 76.921875 25.867188 L 75.328125 25.867188 Z M 75.328125 36.363281 "/>
<path style=" stroke:none;fill-rule:nonzero;fill:rgb(13.299561%,12.199402%,12.199402%);fill-opacity:1;" d="M 86.453125 34.015625 C 86.3125 34.472656 86.070313 34.890625 85.722656 35.261719 C 85.320313 35.683594 84.878906 35.988281 84.398438 36.175781 C 83.914063 36.363281 83.394531 36.453125 82.835938 36.453125 C 82.285156 36.453125 81.777344 36.359375 81.316406 36.164063 C 80.851563 35.972656 80.441406 35.699219 80.078125 35.335938 C 79.824219 35.078125 79.625 34.808594 79.488281 34.523438 C 79.347656 34.242188 79.25 33.929688 79.183594 33.59375 C 79.125 33.261719 79.082031 32.890625 79.074219 32.480469 C 79.066406 32.074219 79.0625 31.617188 79.0625 31.117188 C 79.0625 30.613281 79.066406 30.160156 79.074219 29.753906 C 79.082031 29.34375 79.125 28.972656 79.183594 28.640625 C 79.25 28.304688 79.347656 27.996094 79.488281 27.710938 C 79.625 27.425781 79.824219 27.152344 80.078125 26.898438 C 80.441406 26.539063 80.847656 26.257813 81.308594 26.066406 C 81.769531 25.875 82.273438 25.78125 82.835938 25.78125 C 83.394531 25.78125 83.894531 25.863281 84.332031 26.035156 C 84.769531 26.207031 85.148438 26.445313 85.46875 26.738281 C 85.785156 27.03125 86.046875 27.378906 86.242188 27.769531 C 86.441406 28.160156 86.574219 28.582031 86.65625 29.039063 L 85.042969 29.039063 C 84.914063 28.460938 84.652344 28.007813 84.28125 27.6875 C 83.90625 27.371094 83.425781 27.210938 82.835938 27.210938 C 82.519531 27.210938 82.226563 27.265625 81.960938 27.386719 C 81.699219 27.503906 81.46875 27.660156 81.285156 27.859375 C 81.160156 27.996094 81.050781 28.144531 80.972656 28.308594 C 80.886719 28.46875 80.824219 28.671875 80.78125 28.914063 C 80.730469 29.152344 80.699219 29.449219 80.683594 29.796875 C 80.660156 30.144531 80.652344 30.589844 80.652344 31.117188 C 80.652344 31.652344 80.660156 32.089844 80.683594 32.445313 C 80.699219 32.796875 80.730469 33.097656 80.78125 33.339844 C 80.824219 33.582031 80.886719 33.777344 80.972656 33.941406 C 81.050781 34.101563 81.160156 34.257813 81.285156 34.390625 C 81.46875 34.589844 81.699219 34.742188 81.960938 34.855469 C 82.226563 34.964844 82.519531 35.023438 82.835938 35.023438 C 83.175781 35.023438 83.496094 34.960938 83.792969 34.835938 C 84.089844 34.707031 84.335938 34.523438 84.546875 34.289063 C 84.742188 34.0625 84.878906 33.816406 84.957031 33.554688 C 85.039063 33.285156 85.074219 32.984375 85.074219 32.636719 L 85.074219 32.042969 L 82.835938 32.042969 L 82.835938 30.707031 L 86.667969 30.707031 L 86.667969 32.308594 C 86.667969 32.984375 86.597656 33.554688 86.453125 34.015625 "/>
<path style=" stroke:none;fill-rule:nonzero;fill:rgb(13.299561%,12.199402%,12.199402%);fill-opacity:1;" d="M 88.792969 36.363281 L 90.386719 36.363281 L 90.386719 25.867188 L 88.792969 25.867188 Z M 88.792969 36.363281 "/>
<path style=" stroke:none;fill-rule:nonzero;fill:rgb(13.299561%,12.199402%,12.199402%);fill-opacity:1;" d="M 96.460938 27.296875 L 96.460938 36.363281 L 94.867188 36.363281 L 94.867188 27.296875 L 91.976563 27.296875 L 91.976563 25.867188 L 99.34375 25.867188 L 99.34375 27.296875 "/>
<path style=" stroke:none;fill-rule:nonzero;fill:rgb(13.299561%,12.199402%,12.199402%);fill-opacity:1;" d="M 103.328125 28.253906 L 101.695313 32.917969 L 104.921875 32.917969 Z M 106.089844 36.363281 L 105.367188 34.257813 L 101.222656 34.257813 L 100.496094 36.363281 L 98.804688 36.363281 L 102.65625 25.867188 L 103.933594 25.867188 L 107.785156 36.363281 "/>
<path style=" stroke:none;fill-rule:nonzero;fill:rgb(13.299561%,12.199402%,12.199402%);fill-opacity:1;" d="M 109.050781 36.363281 L 109.050781 25.867188 L 110.644531 25.867188 L 110.644531 34.933594 L 115.699219 34.933594 L 115.699219 36.363281 "/>
</g>
</svg>
