<?xml version="1.0" encoding="UTF-8"?>
<svg xmlns="http://www.w3.org/2000/svg" xmlns:xlink="http://www.w3.org/1999/xlink" width="391.66pt" height="260.499pt" viewBox="0 0 391.66 260.499" version="1.1">
<defs>
<clipPath id="clip1">
  <path d="M 243 0 L 391.660156 0 L 391.660156 260.5 L 243 260.5 Z M 243 0 "/>
</clipPath>
</defs>
<g id="surface1">
<path style=" stroke:none;fill-rule:nonzero;fill:rgb(92.498779%,12.199402%,14.898682%);fill-opacity:1;" d="M 180.464844 140.910156 L 148.589844 140.910156 L 148.589844 71.75 L 169.695313 71.75 C 190.480469 71.75 210.257813 74.65625 210.257813 108.445313 C 210.257813 142.230469 180.464844 140.910156 180.464844 140.910156 M 232.050781 100.257813 C 227.914063 49.21875 176.378906 54.699219 176.378906 54.699219 L 122.238281 54.699219 L 122.238281 57.054688 C 125.363281 56.976563 126.679688 60.199219 126.679688 60.199219 L 126.679688 152.933594 C 124.660156 156.101563 121.261719 156.042969 121.261719 156.042969 L 121.261719 158.910156 L 177.144531 158.910156 C 236.1875 159.265625 232.535156 109.75 232.050781 100.257813 "/>
<path style=" stroke:none;fill-rule:nonzero;fill:rgb(92.498779%,12.199402%,14.898682%);fill-opacity:1;" d="M 26.707031 140.195313 L 26.707031 112.203125 L 71.203125 112.203125 C 71.203125 112.203125 84.3125 111.355469 84.3125 125.480469 C 84.3125 139.601563 74.675781 139.777344 66.871094 139.777344 Z M 26.707031 95.886719 L 26.707031 71.019531 L 69.371094 71.019531 C 69.371094 71.019531 81.921875 70.265625 81.921875 82.808594 C 81.921875 95.347656 72.6875 95.507813 65.1875 95.507813 Z M 55.113281 54.699219 L 1 54.699219 L 1 57.054688 C 4.101563 56.976563 5.414063 60.199219 5.414063 60.199219 L 5.414063 151.964844 C 3.414063 155.132813 0 155.070313 0 155.070313 L 0 157.960938 L 75.507813 157.960938 C 75.507813 157.960938 106.15625 156.238281 106.15625 129.652344 C 106.15625 129.652344 108.40625 111.414063 90.664063 103.695313 C 95.300781 99.78125 104.722656 94.679688 103.117188 77.445313 C 103.117188 68.089844 93.386719 54.460938 73.742188 54.460938 C 54.113281 54.460938 55.113281 54.699219 55.113281 54.699219 "/>


<g clip-path="url(#clip1)" clip-rule="nonzero">
<path style=" stroke:none;fill-rule:nonzero;fill:rgb(7.798767%,65.098572%,28.999329%);fill-opacity:1;" d="M 244.832031 260.5 C 244.832031 260.5 237.90625 228.554688 252.679688 191.617188 C 248.0625 183.304688 231.902344 148.214844 272.996094 87.265625 C 301.625 46.171875 339.484375 18.46875 391.660156 0 C 373.191406 12.464844 359.800781 18.007813 347.335938 57.253906 C 334.867188 96.5 325.632813 123.742188 319.632813 143.136719 C 313.628906 162.527344 286.386719 195.3125 262.378906 198.082031 C 260.070313 206.390625 244.832031 237.035156 244.832031 260.5 "/>
</g>
<path style=" stroke:none;fill-rule:nonzero;fill:rgb(54.899597%,77.598572%,24.299622%);fill-opacity:1;" d="M 256.09375 182.039063 C 256.09375 182.039063 249.429688 143.613281 271.019531 104.917969 C 291.773438 71.773438 321.492188 35.632813 362.421875 18.230469 C 348.808594 33.222656 334.867188 54.484375 317.4375 117.398438 C 300.671875 159.207031 278.835938 188.871094 261.679688 191.605469 C 275.503906 149.375 307.582031 69.980469 329.570313 49.675781 C 322.589844 52.40625 277.054688 101.304688 256.09375 182.039063 "/>
</g>
</svg>
